<?xml version="1.0" standalone="no"?>
<!DOCTYPE svg PUBLIC "-//W3C//DTD SVG 20010904//EN"
 "http://www.w3.org/TR/2001/REC-SVG-20010904/DTD/svg10.dtd">
<svg version="1.0" xmlns="http://www.w3.org/2000/svg"
 width="332.000000pt" height="332.000000pt" viewBox="0 0 332.000000 332.000000"
 preserveAspectRatio="xMidYMid meet">
<metadata>
Created by potrace 1.14, written by Peter Selinger 2001-2017
</metadata>
<g transform="translate(0.000000,332.000000) scale(0.100000,-0.100000)"
fill="#000000" stroke="none">
<path d="M1649 3196 c-2 -2 -33 -7 -69 -10 -214 -19 -496 -128 -692 -269 -102
-73 -238 -194 -238 -210 1 -7 6 -24 13 -39 l12 -26 90 85 c96 91 268 210 375
260 112 52 282 108 360 118 14 2 57 9 95 15 126 20 433 3 519 -30 14 -5 26 -8
26 -5 0 6 189 -60 252 -89 301 -135 570 -403 713 -711 144 -308 174 -597 100
-977 -3 -14 -21 -73 -41 -130 -123 -356 -376 -647 -722 -829 -40 -21 -76 -39
-80 -40 -4 0 -22 -7 -41 -15 -78 -33 -197 -66 -321 -89 -58 -12 -361 -14 -420
-4 -30 5 -79 14 -107 20 -29 6 -56 11 -60 11 -27 2 -222 77 -296 113 -238 119
-490 349 -584 532 -64 123 -129 308 -149 417 -20 112 -31 247 -29 355 3 136 5
158 36 328 24 128 24 126 11 131 -13 4 -50 -120 -62 -213 -28 -213 -30 -501
-4 -629 2 -12 7 -37 10 -56 19 -110 85 -289 146 -393 96 -165 256 -325 448
-449 267 -174 540 -250 870 -243 85 2 164 5 175 8 11 2 52 10 90 17 156 28
388 120 524 208 353 230 593 575 681 977 28 129 34 193 33 346 -3 334 -112
648 -322 923 -46 61 -193 212 -246 254 -203 160 -442 269 -700 318 -74 14
-385 30 -396 20z"/>
<path d="M458 2533 c-53 -44 -77 -75 -93 -122 -27 -79 -16 -193 23 -241 l17
-22 48 49 c91 91 130 212 97 298 -12 32 -38 65 -51 65 -4 0 -22 -12 -41 -27z"/>
<path d="M1178 2489 c-50 -26 -74 -28 -127 -12 -50 15 -115 10 -144 -12 -28
-21 -6 -90 45 -138 39 -37 41 -42 41 -100 0 -107 -17 -162 -78 -253 -14 -20
-25 -46 -25 -57 0 -32 46 -91 91 -116 67 -38 130 -29 210 28 23 17 58 33 78
37 20 3 65 22 99 41 82 45 84 44 96 -91 6 -65 9 -68 82 -92 46 -14 54 -14 80
-1 121 62 405 95 638 73 145 -14 305 -67 372 -124 78 -66 121 -193 111 -331
-2 -42 -21 -137 -40 -211 -52 -198 -54 -215 -25 -233 30 -19 124 -22 134 -5 5
7 10 101 11 208 3 244 9 304 38 402 34 115 38 428 7 553 -37 153 -126 223
-294 233 -72 4 -237 -8 -320 -23 -9 -2 -48 -7 -85 -10 -37 -4 -79 -9 -93 -11
-34 -6 -168 -5 -205 1 -16 4 -57 13 -90 22 -64 16 -82 19 -162 29 l-52 7 25
48 c32 63 31 73 -11 88 -51 18 -105 17 -145 -2 -38 -19 -26 -24 -116 42 -41
30 -100 34 -146 10z"/>
<path d="M141 2320 c-52 -121 -27 -274 60 -361 23 -23 77 -54 83 -48 3 3 13
34 22 69 21 84 13 175 -25 255 -25 54 -91 135 -111 135 -4 0 -17 -23 -29 -50z"/>
<path d="M625 2173 c-107 -43 -184 -137 -185 -225 0 -33 3 -38 23 -38 29 0
114 41 152 72 39 33 73 101 80 161 7 54 -1 57 -70 30z"/>
<path d="M594 1853 c-96 -32 -184 -154 -184 -255 0 -43 2 -48 22 -48 91 0 218
136 253 271 l13 48 -31 -1 c-18 -1 -51 -7 -73 -15z"/>
<path d="M5 1802 c20 -156 113 -269 226 -275 l44 -2 1 62 c3 134 -98 246 -232
258 l-45 3 6 -46z"/>
<path d="M1915 1704 c-89 -13 -195 -38 -235 -55 -45 -19 -45 -19 -100 2 -92
36 -95 34 -95 -41 0 -59 -3 -69 -32 -105 -18 -22 -33 -43 -33 -48 0 -23 -48
-72 -88 -89 -42 -19 -44 -22 -38 -51 4 -18 9 -54 12 -82 3 -27 11 -55 18 -62
6 -7 34 -15 61 -18 87 -10 108 -16 182 -51 40 -19 77 -34 83 -34 22 0 45 -96
43 -186 l-1 -50 54 -1 c51 0 55 2 60 26 15 68 47 161 58 170 17 14 54 1 80
-28 11 -11 24 -21 30 -21 6 0 34 -18 61 -41 27 -22 56 -44 65 -49 12 -6 15
-18 12 -39 -5 -33 -11 -38 -30 -19 -16 16 -29 1 -15 -20 9 -15 7 -18 -11 -17
-27 0 -33 -19 -7 -23 13 -2 17 -9 14 -23 -7 -25 9 -24 32 1 10 11 26 20 37 20
19 0 25 26 8 32 -7 2 -8 17 -3 42 7 31 14 41 35 47 25 6 28 4 42 -37 l15 -44
-30 0 c-29 0 -40 -14 -16 -23 10 -4 10 -7 0 -18 -7 -7 -13 -19 -13 -27 0 -12
4 -11 25 2 23 15 25 15 25 0 0 -22 23 -12 26 11 2 11 8 30 15 42 10 19 10 25
-3 36 -18 13 -41 87 -28 87 14 0 70 63 70 79 0 23 38 81 52 80 7 0 29 -24 48
-52 31 -48 34 -58 34 -123 l-1 -72 61 2 62 1 0 45 c1 73 11 132 44 255 71 266
28 431 -134 506 -108 50 -167 61 -351 64 -93 2 -183 1 -200 -1z"/>
<path d="M640 1555 c-105 -55 -185 -162 -194 -261 -5 -59 4 -68 54 -60 126 20
204 129 215 300 3 55 -7 57 -75 21z"/>
<path d="M17 1432 c-39 -8 11 -142 71 -192 55 -45 166 -73 215 -54 33 12 -15
127 -76 179 -53 45 -158 79 -210 67z"/>
<path d="M727 1220 c-78 -24 -151 -95 -177 -173 -13 -41 -18 -123 -7 -133 14
-14 120 31 163 69 71 62 93 120 86 225 -2 24 -17 26 -65 12z"/>
<path d="M143 1072 c-24 -2 -43 -5 -43 -8 0 -2 9 -23 20 -47 55 -116 183 -182
292 -151 13 4 15 11 8 36 -32 108 -147 179 -277 170z"/>
</g>
</svg>
